# xmcd
#
# Track frame offsets: 
#        150
#        21532
#        43385
#        64792
#
# Disc length: 1157 seconds
#
# Revision: 3
# Processed by: cddbd v1.5.2PL0 Copyright (c) Steve Scherf et al.
# Submitted via: ExactAudioCopy v0.99pb4
#
DISCID=38048304
DTITLE=Total - Kissin' You [CDS)
DYEAR=1996
DGENRE=R&B
TTITLE0=Kissin' You (Album Verison)
TTITLE1=Kissin' You/Oh Honey
TTITLE2=Album Verison (Instrumental)
TTITLE3=Kissin' You/Oh Honey (Instrumental)
EXTD=YEAR: 1996
EXTT0=
EXTT1=
EXTT2=
EXTT3=
PLAYORDER=
